# xmcd CD database file
#
# Track frame offsets:
#	150
#	22123
#	44987
#	64070
#	85058
#	102062
#	119378
#	144347
#	165071
#	180530
#
# Disc length: 2687 seconds
#
# Revision: 3
# Processed by: cddbd v1.5.1PL0 Copyright (c) Steve Scherf et al.
# Submitted via: CDex 1.51
#
DISCID=7d0a7d0a
DTITLE=岡崎律子 - RAINBOW -symphonic=rain character vocal album-
DYEAR=2004
DGENRE=Game
TTITLE0=フォーニ／CV：笠原弘子/空の向こうに
TTITLE1=フォーニ／CV：笠原弘子/I'm always close to you
TTITLE2=トルタ／CV：中原麻衣/秘密
TTITLE3=トルタ／CV：中原麻衣/いつでも微笑みを
TTITLE4=ファル／CV：浅野真澄/雨のmusique
TTITLE5=ファル／CV：浅野真澄/メロディー
TTITLE6=リセ／CV：折笠富美子/リセエンヌ
TTITLE7=リセ／CV：折笠富美子/Hello!
TTITLE8=フォーニ／CV：笠原弘子/fay
TTITLE9=フォーニ／CV：笠原弘子/涙がほおを流れても
EXTD=YEAR: 2004
EXTT0=
EXTT1=
EXTT2=
EXTT3=
EXTT4=
EXTT5=
EXTT6=
EXTT7=
EXTT8=
EXTT9=
PLAYORDER=
